<?xml version="1.0" encoding="UTF-8" standalone="no"?>
<svg xmlns:ffdec="https://www.free-decompiler.com/flash" xmlns:xlink="http://www.w3.org/1999/xlink" ffdec:objectType="shape" height="30.1px" width="6.05px" xmlns="http://www.w3.org/2000/svg">
  <g transform="matrix(1.0, 0.0, 0.0, 1.0, 2.95, 29.8)">
    <path d="M2.6 -2.95 Q2.6 -1.8 1.85 -1.0 1.15 -0.2 0.05 -0.2 -1.0 -0.2 -1.75 -1.0 -2.45 -1.8 -2.45 -2.95 L-2.45 -26.55 Q-2.45 -27.7 -1.75 -28.5 -1.0 -29.3 0.05 -29.3 1.15 -29.3 1.85 -28.5 2.6 -27.7 2.6 -26.55 L2.6 -2.95 Z" fill="none" stroke="#ffffff" stroke-linecap="round" stroke-linejoin="round" stroke-width="1.0"/>
    <path d="M1.1 -26.5 Q0.65 -26.2 0.05 -26.2 L-1.0 -26.5 Q-1.4 -26.8 -1.4 -27.2 L-1.0 -27.9 0.05 -28.2 1.1 -27.9 1.55 -27.2 Q1.55 -26.8 1.1 -26.5" fill="url(#gradient0)" fill-rule="evenodd" stroke="none"/>
    <path d="M0.15 -3.0 L1.15 -2.6 1.45 -1.85 Q1.4 -1.45 0.95 -1.2 L-0.1 -1.0 Q-0.7 -1.1 -1.1 -1.45 -1.55 -1.8 -1.45 -2.2 L-0.95 -2.85 0.15 -3.0" fill="url(#gradient1)" fill-rule="evenodd" stroke="none"/>
  </g>
  <defs>
    <linearGradient gradientTransform="matrix(0.0, 0.0011, 0.0012, 0.0, 0.2, -27.05)" gradientUnits="userSpaceOnUse" id="gradient0" spreadMethod="pad" x1="-819.2" x2="819.2">
      <stop offset="0.0" stop-color="#ffffff" stop-opacity="0.6627451"/>
      <stop offset="1.0" stop-color="#ffffff" stop-opacity="0.0"/>
    </linearGradient>
    <linearGradient gradientTransform="matrix(0.0, -5.0E-4, -0.0012, 0.0, -0.25, -1.75)" gradientUnits="userSpaceOnUse" id="gradient1" spreadMethod="pad" x1="-819.2" x2="819.2">
      <stop offset="0.0" stop-color="#ffffff" stop-opacity="0.6627451"/>
      <stop offset="1.0" stop-color="#ffffff" stop-opacity="0.0"/>
    </linearGradient>
  </defs>
</svg>
