<?xml version="1.0" encoding="UTF-8" standalone="no"?>
<svg xmlns:ffdec="https://www.free-decompiler.com/flash" xmlns:xlink="http://www.w3.org/1999/xlink" ffdec:objectType="shape" height="9.65px" width="40.6px" xmlns="http://www.w3.org/2000/svg">
  <g transform="matrix(1.0, 0.0, 0.0, 1.0, 0.85, 4.9)">
    <path d="M39.7 -4.85 L39.7 -4.9 39.75 -4.9 39.7 -4.85 M0.7 -0.55 Q0.9 0.95 1.75 2.35 L2.7 3.7 2.65 4.0 2.45 4.15 Q0.15 1.05 0.15 -2.0 L0.35 -3.4 0.7 -0.55 M-0.65 -1.25 Q-0.2 -0.55 -0.35 1.05 -0.55 2.65 1.05 4.3 L1.0 4.6 0.8 4.75 Q-0.6 3.15 -0.6 2.1 L-0.85 -0.4 -0.8 -1.25 -0.65 -1.25" fill="#000000" fill-rule="evenodd" stroke="none"/>
  </g>
</svg>
