<?xml version="1.0" encoding="UTF-8" standalone="no"?>
<svg xmlns:ffdec="https://www.free-decompiler.com/flash" xmlns:xlink="http://www.w3.org/1999/xlink" ffdec:objectType="morphshape" height="425.35px" width="923.65px" xmlns="http://www.w3.org/2000/svg">
  <g transform="matrix(1.0, 0.0, 0.0, 1.0, 800.45, 219.1)">
    <path d="M-800.45 -42.85 L-800.45 -42.85 Q-801.0 -15.45 -755.35 28.45 L-753.7 30.05 -749.25 34.35 -748.25 35.25 -747.5 36.0 Q-702.55 78.25 -687.05 98.1 L-684.0 102.15 -680.0 108.2 -678.5 110.65 -677.2 112.8 Q-665.5 132.95 -655.0 159.2 L-652.4 165.8 Q-649.45 173.55 -646.45 180.0 L-644.45 184.15 -642.8 187.3 -640.3 191.2 Q-637.7 194.85 -635.05 197.1 -629.45 203.55 -621.05 205.35 L-615.7 206.05 -613.85 206.15 Q-605.0 206.8 -591.85 203.85 L-584.35 202.0 -574.65 199.0 -568.8 197.15 -566.85 196.5 -566.35 196.3 -558.35 193.6 -552.8 191.6 -546.25 189.25 -544.4 188.55 -522.1 180.0 -521.3 179.7 Q-518.0 178.45 -514.75 177.25 L-513.65 176.85 -512.85 176.55 -512.5 175.7 Q-511.4 173.8 -508.4 171.6 L-507.75 170.75 -507.6 170.55 -507.1 169.75 Q-495.65 155.45 -412.45 124.9 L-410.15 124.05 -401.45 120.9 -400.7 120.65 -398.3 119.75 Q-383.85 114.2 -318.9 92.85 L-305.6 88.5 -304.15 88.0 -303.25 87.7 -288.0 82.55 Q-262.05 73.6 -235.95 62.15 -227.1 56.45 -218.5 51.25 -206.5 43.95 -195.0 37.5 L-193.3 36.55 Q-188.25 33.75 -183.3 31.1 -174.85 26.65 -166.7 22.7 -116.45 -1.8 -76.55 -7.5 -69.8 -8.2 -63.05 -8.9 L-63.45 -11.15 -64.1 -13.3 -64.5 -14.3 -62.3 -16.15 -60.45 -17.8 -55.65 -22.3 -54.2 -24.0 -54.1 -24.1 -53.7 -24.5 -52.7 -25.6 -51.55 -27.05 -50.15 -28.75 -49.95 -29.05 -49.0 -30.25 -48.2 -31.25 Q-46.05 -33.8 -44.4 -36.05 L-43.9 -36.8 -43.35 -37.55 Q-43.5 -39.25 -43.95 -40.8 L-43.45 -41.2 -43.1 -41.5 -42.85 -41.75 -43.1 -43.95 -43.4 -45.2 -44.85 -48.15 -45.05 -48.75 Q-45.65 -50.55 -45.85 -52.5 L-45.85 -53.0 -45.95 -53.3 -46.6 -55.45 Q-47.4 -57.7 -48.2 -59.9 L-48.45 -60.45 Q-48.8 -61.8 -49.3 -62.95 -50.2 -65.05 -51.55 -66.4 -53.65 -68.65 -54.7 -71.2 L-55.0 -71.95 -55.35 -73.1 -55.55 -73.7 -56.2 -74.75 -56.75 -75.3 Q-59.15 -77.1 -63.65 -78.2 L-64.3 -78.35 -64.4 -78.35 Q-65.3 -78.55 -66.15 -78.7 L-72.35 -80.15 -76.15 -81.05 -76.65 -81.25 -84.3 -84.05 -91.3 -86.4 -92.15 -86.7 -103.15 -90.2 -104.05 -90.45 -114.45 -92.65 -127.55 -95.0 -156.75 -99.35 -161.25 -100.05 -162.1 -99.75 -164.7 -99.3 -166.5 -99.6 -172.05 -100.15 -206.4 -106.45 -212.75 -107.55 -212.85 -107.55 -216.5 -108.2 -217.0 -108.25 -219.6 -108.55 Q-219.95 -109.25 -225.0 -110.55 L-226.75 -111.0 -232.1 -112.2 -233.75 -112.55 -244.15 -115.25 Q-266.2 -120.8 -303.9 -129.1 L-316.8 -131.9 -334.85 -135.7 -338.05 -136.4 -347.35 -138.4 Q-563.75 -185.15 -704.35 -217.55 L-704.85 -217.65 -706.15 -217.35 Q-717.5 -214.8 -728.4 -211.05 L-730.65 -207.1 Q-760.6 -153.85 -800.45 -42.85" fill="#000066" fill-rule="evenodd" stroke="none">
      <animate attributeName="fill" dur="2.0s" repeatCount="indefinite" values="#000066;#000067"/>
      <animate attributeName="fill-opacity" dur="2.0s" repeatCount="indefinite" values="1.0;1.0"/>
      <animate attributeName="d" dur="2.0s" repeatCount="indefinite" values="M-800.45 -42.85 L-800.45 -42.85 Q-801.0 -15.45 -755.35 28.45 L-753.7 30.05 -749.25 34.35 -748.25 35.25 -747.5 36.0 Q-702.55 78.25 -687.05 98.1 L-684.0 102.15 -680.0 108.2 -678.5 110.65 -677.2 112.8 Q-665.5 132.95 -655.0 159.2 L-652.4 165.8 Q-649.45 173.55 -646.45 180.0 L-644.45 184.15 -642.8 187.3 -640.3 191.2 Q-637.7 194.85 -635.05 197.1 -629.45 203.55 -621.05 205.35 L-615.7 206.05 -613.85 206.15 Q-605.0 206.8 -591.85 203.85 L-584.35 202.0 -574.65 199.0 -568.8 197.15 -566.85 196.5 -566.35 196.3 -558.35 193.6 -552.8 191.6 -546.25 189.25 -544.4 188.55 -522.1 180.0 -521.3 179.7 Q-518.0 178.45 -514.75 177.25 L-513.65 176.85 -512.85 176.55 -512.5 175.7 Q-511.4 173.8 -508.4 171.6 L-507.75 170.75 -507.6 170.55 -507.1 169.75 Q-495.65 155.45 -412.45 124.9 L-410.15 124.05 -401.45 120.9 -400.7 120.65 -398.3 119.75 Q-383.85 114.2 -318.9 92.85 L-305.6 88.5 -304.15 88.0 -303.25 87.7 -288.0 82.55 Q-262.05 73.6 -235.95 62.15 -227.1 56.45 -218.5 51.25 -206.5 43.95 -195.0 37.5 L-193.3 36.55 Q-188.25 33.75 -183.3 31.1 -174.85 26.65 -166.7 22.7 -116.45 -1.8 -76.55 -7.5 -69.8 -8.2 -63.05 -8.9 L-63.45 -11.15 -64.1 -13.3 -64.5 -14.3 -62.3 -16.15 -60.45 -17.8 -55.65 -22.3 -54.2 -24.0 -54.1 -24.1 -53.7 -24.5 -52.7 -25.6 -51.55 -27.05 -50.15 -28.75 -49.95 -29.05 -49.0 -30.25 -48.2 -31.25 Q-46.05 -33.8 -44.4 -36.05 L-43.9 -36.8 -43.35 -37.55 Q-43.5 -39.25 -43.95 -40.8 L-43.45 -41.2 -43.1 -41.5 -42.85 -41.75 -43.1 -43.95 -43.4 -45.2 -44.85 -48.15 -45.05 -48.75 Q-45.65 -50.55 -45.85 -52.5 L-45.85 -53.0 -45.95 -53.3 -46.6 -55.45 Q-47.4 -57.7 -48.2 -59.9 L-48.45 -60.45 Q-48.8 -61.8 -49.3 -62.95 -50.2 -65.05 -51.55 -66.4 -53.65 -68.65 -54.7 -71.2 L-55.0 -71.95 -55.35 -73.1 -55.55 -73.7 -56.2 -74.75 -56.75 -75.3 Q-59.15 -77.1 -63.65 -78.2 L-64.3 -78.35 -64.4 -78.35 Q-65.3 -78.55 -66.15 -78.7 L-72.35 -80.15 -76.15 -81.05 -76.65 -81.25 -84.3 -84.05 -91.3 -86.4 -92.15 -86.7 -103.15 -90.2 -104.05 -90.45 -114.45 -92.65 -127.55 -95.0 -156.75 -99.35 -161.25 -100.05 -162.1 -99.75 -164.7 -99.3 -166.5 -99.6 -172.05 -100.15 -206.4 -106.45 -212.75 -107.55 -212.85 -107.55 -216.5 -108.2 -217.0 -108.25 -219.6 -108.55 Q-219.95 -109.25 -225.0 -110.55 L-226.75 -111.0 -232.1 -112.2 -233.75 -112.55 -244.15 -115.25 Q-266.2 -120.8 -303.9 -129.1 L-316.8 -131.9 -334.85 -135.7 -338.05 -136.4 -347.35 -138.4 Q-563.75 -185.15 -704.35 -217.55 L-704.85 -217.65 -706.15 -217.35 Q-717.5 -214.8 -728.4 -211.05 L-730.65 -207.1 Q-760.6 -153.85 -800.45 -42.85;M-715.5 -44.55 L-715.5 -44.45 Q-716.0 -16.1 -662.55 29.75 L-660.6 31.45 -655.75 35.65 -654.45 36.75 -653.95 37.15 Q-599.15 84.35 -585.5 102.7 L-582.5 106.95 -578.25 113.45 -576.65 116.1 -575.15 118.55 Q-562.1 140.35 -550.5 168.65 L-547.3 176.05 Q-543.3 184.8 -539.1 190.85 L-535.85 194.9 -533.4 197.35 -529.3 200.2 Q-526.0 202.4 -521.6 203.55 -514.3 205.5 -503.85 204.65 L-498.1 204.15 -496.1 203.9 Q-485.85 202.6 -472.7 199.05 L-464.6 196.65 -454.05 193.5 -447.6 191.5 -445.5 190.9 -445.0 190.75 -436.1 187.75 -430.05 185.7 -422.8 183.2 -420.95 182.55 -396.35 174.15 -396.2 173.05 Q-395.7 170.5 -391.6 167.35 L-390.6 166.35 -390.6 166.35 -389.8 165.65 Q-387.7 163.9 -384.6 161.95 L-383.8 161.45 -383.4 161.25 -382.7 160.85 Q-357.1 145.75 -275.15 119.25 L-272.6 118.4 -263.7 115.5 -262.9 115.25 -260.25 114.4 Q-235.4 106.6 -172.3 87.9 L-157.65 83.55 -156.05 83.05 -155.05 82.75 -138.3 77.45 Q-109.8 68.15 -81.2 56.45 -71.8 52.45 -62.45 48.5 -48.95 42.3 -35.45 36.15 L-33.5 35.2 Q-26.95 31.9 -22.15 29.75 -12.7 25.55 -3.25 21.4 104.95 21.1 86.6 -5.8 94.4 -8.75 99.9 -12.0 L101.95 -13.25 104.1 -14.45 105.35 -15.2 108.25 -17.0 110.5 -18.45 116.35 -22.65 118.35 -24.2 118.55 -24.4 119.2 -25.0 119.15 -26.6 119.05 -28.6 121.3 -29.3 121.7 -29.4 122.1 -30.95 122.4 -32.3 Q123.05 -35.1 123.2 -38.7 L123.2 -39.55 123.2 -40.45 Q123.15 -42.15 123.15 -43.8 L123.15 -44.35 123.15 -44.75 123.15 -44.85 122.85 -47.6 122.75 -49.0 122.5 -52.7 122.35 -53.35 Q122.0 -55.45 121.65 -57.5 L121.45 -58.1 121.35 -58.45 120.25 -60.6 Q118.55 -62.85 117.9 -65.35 L117.8 -65.95 Q117.55 -67.35 117.65 -68.8 117.7 -70.95 115.5 -72.45 113.5 -73.85 109.6 -74.7 L108.8 -74.85 107.65 -75.05 107.0 -75.15 105.85 -75.35 105.05 -75.55 Q100.8 -76.55 96.55 -77.55 L95.7 -77.8 95.7 -77.8 Q94.85 -78.2 93.95 -78.65 L87.85 -81.4 84.8 -82.65 84.0 -82.95 75.85 -86.15 68.35 -89.0 67.3 -89.35 54.85 -92.0 53.95 -92.2 42.25 -94.25 28.65 -96.05 -2.85 -100.25 -7.6 -100.4 -8.7 -100.4 -11.3 -100.8 -13.3 -101.1 -19.3 -101.95 -56.9 -107.5 -63.8 -108.5 -63.9 -108.5 -67.15 -109.65 -67.75 -109.85 -70.65 -110.7 Q-73.75 -111.5 -76.85 -112.3 L-78.7 -112.7 -83.95 -113.9 -85.9 -114.35 -97.6 -116.8 Q-122.2 -122.3 -163.25 -130.3 L-177.3 -133.0 -196.9 -136.75 -200.4 -137.45 -210.3 -139.35 Q-445.55 -184.95 -600.55 -217.05 L-601.05 -217.15 -602.45 -217.45 Q-615.0 -218.2 -627.55 -218.9 L-632.7 -219.1 Q-667.65 -166.5 -715.5 -44.55"/>
    </path>
    <path d="M-800.45 -42.85 Q-760.6 -153.85 -730.65 -207.1 L-728.4 -211.05 Q-717.5 -214.8 -706.15 -217.35 L-704.85 -217.65 -704.35 -217.55 Q-563.75 -185.15 -347.35 -138.4 L-338.05 -136.4 -334.85 -135.7 -316.8 -131.9 -303.9 -129.1 Q-266.2 -120.8 -244.15 -115.25 L-233.75 -112.55 -232.1 -112.2 -226.75 -111.0 -225.0 -110.55 Q-219.95 -109.25 -219.6 -108.55 L-217.0 -108.25 -216.5 -108.2 -212.85 -107.55 -212.75 -107.55 -206.4 -106.45 -172.05 -100.15 -166.5 -99.6 -164.7 -99.3 -162.1 -99.75 -161.25 -100.05 -156.75 -99.35 -127.55 -95.0 -114.45 -92.65 -104.05 -90.45 -103.15 -90.2 -92.15 -86.7 -91.3 -86.4 -84.3 -84.05 -76.65 -81.25 -76.15 -81.05 -72.35 -80.15 -66.15 -78.7 Q-65.3 -78.55 -64.4 -78.35 L-64.3 -78.35 -63.65 -78.2 Q-59.15 -77.1 -56.75 -75.3 L-56.2 -74.75 -55.55 -73.7 -55.35 -73.1 -55.0 -71.95 -54.7 -71.2 Q-53.65 -68.65 -51.55 -66.4 -50.2 -65.05 -49.3 -62.95 -48.8 -61.8 -48.45 -60.45 L-48.2 -59.9 Q-47.4 -57.7 -46.6 -55.45 L-45.95 -53.3 -45.85 -53.0 -45.85 -52.5 Q-45.65 -50.55 -45.05 -48.75 L-44.85 -48.15 -43.4 -45.2 -43.1 -43.95 -42.85 -41.75 -43.1 -41.5 -43.45 -41.2 -43.95 -40.8 Q-43.5 -39.25 -43.35 -37.55 L-43.9 -36.8 -44.4 -36.05 Q-46.05 -33.8 -48.2 -31.25 L-49.0 -30.25 -49.95 -29.05 -50.15 -28.75 -51.55 -27.05 -52.7 -25.6 -53.7 -24.5 -54.1 -24.1 -54.2 -24.0 -55.65 -22.3 -60.45 -17.8 -62.3 -16.15 -64.5 -14.3 -64.1 -13.3 -63.45 -11.15 -63.05 -8.9 Q-69.8 -8.2 -76.55 -7.5 -116.45 -1.8 -166.7 22.7 -174.85 26.65 -183.3 31.1 -188.25 33.75 -193.3 36.55 L-195.0 37.5 Q-206.5 43.95 -218.5 51.25 -227.1 56.45 -235.95 62.15 -262.05 73.6 -288.0 82.55 L-303.25 87.7 -304.15 88.0 -305.6 88.5 -318.9 92.85 Q-383.85 114.2 -398.3 119.75 L-400.7 120.65 -401.45 120.9 -410.15 124.05 -412.45 124.9 Q-495.65 155.45 -507.1 169.75 L-507.6 170.55 -507.75 170.75 -508.4 171.6 Q-511.4 173.8 -512.5 175.7 L-512.85 176.55 -513.65 176.85 -514.75 177.25 Q-518.0 178.45 -521.3 179.7 L-522.1 180.0 -544.4 188.55 -546.25 189.25 -552.8 191.6 -558.35 193.6 -566.35 196.3 -566.85 196.5 -568.8 197.15 -574.65 199.0 -584.35 202.0 -591.85 203.85 Q-605.0 206.8 -613.85 206.15 L-615.7 206.05 -621.05 205.35 Q-629.45 203.55 -635.05 197.1 -637.7 194.85 -640.3 191.2 L-642.8 187.3 -644.45 184.15 -646.45 180.0 Q-649.45 173.55 -652.4 165.8 L-655.0 159.2 Q-665.5 132.95 -677.2 112.8 L-678.5 110.65 -680.0 108.2 -684.0 102.15 -687.05 98.1 Q-702.55 78.25 -747.5 36.0 L-748.25 35.25 -749.25 34.35 -753.7 30.05 -755.35 28.45 Q-801.0 -15.45 -800.45 -42.85 L-800.45 -42.85 Z" fill="none" stroke="#000000" stroke-linecap="round" stroke-linejoin="round" stroke-opacity="0.0" stroke-width="0.0">
      <animate attributeName="stroke" dur="2.0s" repeatCount="indefinite" values="#000000;#000001"/>
      <animate attributeName="stroke-width" dur="2.0s" repeatCount="indefinite" values="0.0;0.0"/>
      <animate attributeName="fill-opacity" dur="2.0s" repeatCount="indefinite" values="0.0;0.0"/>
      <animate attributeName="d" dur="2.0s" repeatCount="indefinite" values="M-800.45 -42.85 Q-760.6 -153.85 -730.65 -207.1 L-728.4 -211.05 Q-717.5 -214.8 -706.15 -217.35 L-704.85 -217.65 -704.35 -217.55 Q-563.75 -185.15 -347.35 -138.4 L-338.05 -136.4 -334.85 -135.7 -316.8 -131.9 -303.9 -129.1 Q-266.2 -120.8 -244.15 -115.25 L-233.75 -112.55 -232.1 -112.2 -226.75 -111.0 -225.0 -110.55 Q-219.95 -109.25 -219.6 -108.55 L-217.0 -108.25 -216.5 -108.2 -212.85 -107.55 -212.75 -107.55 -206.4 -106.45 -172.05 -100.15 -166.5 -99.6 -164.7 -99.3 -162.1 -99.75 -161.25 -100.05 -156.75 -99.35 -127.55 -95.0 -114.45 -92.65 -104.05 -90.45 -103.15 -90.2 -92.15 -86.7 -91.3 -86.4 -84.3 -84.05 -76.65 -81.25 -76.15 -81.05 -72.35 -80.15 -66.15 -78.7 Q-65.3 -78.55 -64.4 -78.35 L-64.3 -78.35 -63.65 -78.2 Q-59.15 -77.1 -56.75 -75.3 L-56.2 -74.75 -55.55 -73.7 -55.35 -73.1 -55.0 -71.95 -54.7 -71.2 Q-53.65 -68.65 -51.55 -66.4 -50.2 -65.05 -49.3 -62.95 -48.8 -61.8 -48.45 -60.45 L-48.2 -59.9 Q-47.4 -57.7 -46.6 -55.45 L-45.95 -53.3 -45.85 -53.0 -45.85 -52.5 Q-45.65 -50.55 -45.05 -48.75 L-44.85 -48.15 -43.4 -45.2 -43.1 -43.95 -42.85 -41.75 -43.1 -41.5 -43.45 -41.2 -43.95 -40.8 Q-43.5 -39.25 -43.35 -37.55 L-43.9 -36.8 -44.4 -36.05 Q-46.05 -33.8 -48.2 -31.25 L-49.0 -30.25 -49.95 -29.05 -50.15 -28.75 -51.55 -27.05 -52.7 -25.6 -53.7 -24.5 -54.1 -24.1 -54.2 -24.0 -55.65 -22.3 -60.45 -17.8 -62.3 -16.15 -64.5 -14.3 -64.1 -13.3 -63.45 -11.15 -63.05 -8.9 Q-69.8 -8.2 -76.55 -7.5 -116.45 -1.8 -166.7 22.7 -174.85 26.65 -183.3 31.1 -188.25 33.75 -193.3 36.55 L-195.0 37.5 Q-206.5 43.95 -218.5 51.25 -227.1 56.45 -235.95 62.15 -262.05 73.6 -288.0 82.55 L-303.25 87.7 -304.15 88.0 -305.6 88.5 -318.9 92.85 Q-383.85 114.2 -398.3 119.75 L-400.7 120.65 -401.45 120.9 -410.15 124.05 -412.45 124.9 Q-495.65 155.45 -507.1 169.75 L-507.6 170.55 -507.75 170.75 -508.4 171.6 Q-511.4 173.8 -512.5 175.7 L-512.85 176.55 -513.65 176.85 -514.75 177.25 Q-518.0 178.45 -521.3 179.7 L-522.1 180.0 -544.4 188.55 -546.25 189.25 -552.8 191.6 -558.35 193.6 -566.35 196.3 -566.85 196.5 -568.8 197.15 -574.65 199.0 -584.35 202.0 -591.85 203.85 Q-605.0 206.8 -613.85 206.15 L-615.7 206.05 -621.05 205.35 Q-629.45 203.55 -635.05 197.1 -637.7 194.85 -640.3 191.2 L-642.8 187.3 -644.45 184.15 -646.45 180.0 Q-649.45 173.55 -652.4 165.8 L-655.0 159.2 Q-665.5 132.95 -677.2 112.8 L-678.5 110.65 -680.0 108.2 -684.0 102.15 -687.05 98.1 Q-702.55 78.25 -747.5 36.0 L-748.25 35.25 -749.25 34.35 -753.7 30.05 -755.35 28.45 Q-801.0 -15.45 -800.45 -42.85 L-800.45 -42.85 Z;M-715.5 -44.55 Q-667.65 -166.5 -632.7 -219.1 L-627.55 -218.9 Q-615.0 -218.2 -602.45 -217.45 L-601.05 -217.15 -600.55 -217.05 Q-445.55 -184.95 -210.3 -139.35 L-200.4 -137.45 -196.9 -136.75 -177.3 -133.0 -163.25 -130.3 Q-122.2 -122.3 -97.6 -116.8 L-85.9 -114.35 -83.95 -113.9 -78.7 -112.7 -76.85 -112.3 Q-73.75 -111.5 -70.65 -110.7 L-67.75 -109.85 -67.15 -109.65 -63.9 -108.5 -63.8 -108.5 -56.9 -107.5 -19.3 -101.95 -13.3 -101.1 -11.3 -100.8 -8.7 -100.4 -7.6 -100.4 -2.85 -100.25 28.65 -96.05 42.25 -94.25 53.95 -92.2 54.85 -92.0 67.3 -89.35 68.35 -89.0 75.85 -86.15 84.0 -82.95 84.8 -82.65 87.85 -81.4 93.95 -78.65 Q94.85 -78.2 95.7 -77.8 L95.7 -77.8 96.55 -77.55 Q100.8 -76.55 105.05 -75.55 L105.85 -75.35 107.0 -75.15 107.65 -75.05 108.8 -74.85 109.6 -74.7 Q113.5 -73.85 115.5 -72.45 117.7 -70.95 117.65 -68.8 117.55 -67.35 117.8 -65.95 L117.9 -65.35 Q118.55 -62.85 120.25 -60.6 L121.35 -58.45 121.45 -58.1 121.65 -57.5 Q122.0 -55.45 122.35 -53.35 L122.5 -52.7 122.75 -49.0 122.85 -47.6 123.15 -44.85 123.15 -44.75 123.15 -44.35 123.15 -43.8 Q123.15 -42.15 123.2 -40.45 L123.2 -39.55 123.2 -38.7 Q123.05 -35.1 122.4 -32.3 L122.1 -30.95 121.7 -29.4 121.3 -29.3 119.05 -28.6 119.15 -26.6 119.2 -25.0 118.55 -24.4 118.35 -24.2 116.35 -22.65 110.5 -18.45 108.25 -17.0 105.35 -15.2 104.1 -14.45 101.95 -13.25 99.9 -12.0 Q94.4 -8.75 86.6 -5.8 104.95 21.1 -3.25 21.4 -12.7 25.55 -22.15 29.75 -26.95 31.9 -33.5 35.2 L-35.45 36.15 Q-48.95 42.3 -62.45 48.5 -71.8 52.45 -81.2 56.45 -109.8 68.15 -138.3 77.45 L-155.05 82.75 -156.05 83.05 -157.65 83.55 -172.3 87.9 Q-235.4 106.6 -260.25 114.4 L-262.9 115.25 -263.7 115.5 -272.6 118.4 -275.15 119.25 Q-357.1 145.75 -382.7 160.85 L-383.4 161.25 -383.8 161.45 -384.6 161.95 Q-387.7 163.9 -389.8 165.65 L-390.6 166.35 -390.6 166.35 -391.6 167.35 Q-395.7 170.5 -396.2 173.05 L-396.35 174.15 -420.95 182.55 -422.8 183.2 -430.05 185.7 -436.1 187.75 -445.0 190.75 -445.5 190.9 -447.6 191.5 -454.05 193.5 -464.6 196.65 -472.7 199.05 Q-485.85 202.6 -496.1 203.9 L-498.1 204.15 -503.85 204.65 Q-514.3 205.5 -521.6 203.55 -526.0 202.4 -529.3 200.2 L-533.4 197.35 -535.85 194.9 -539.1 190.85 Q-543.3 184.8 -547.3 176.05 L-550.5 168.65 Q-562.1 140.35 -575.15 118.55 L-576.65 116.1 -578.25 113.45 -582.5 106.95 -585.5 102.7 Q-599.15 84.35 -653.95 37.15 L-654.45 36.75 -655.75 35.65 -660.6 31.45 -662.55 29.75 Q-716.0 -16.1 -715.5 -44.45 L-715.5 -44.55 Z"/>
    </path>
  </g>
</svg>
